HIERARCHY
ROOT Hips
{
	OFFSET 0.00 0.00 0.00
	CHANNELS 6 Xposition Yposition Zposition Xrotation Yrotation Zrotation
	JOINT Spine
	{
		OFFSET 0.00000 7.06766 0.00000
		CHANNELS 3 Xrotation Yrotation Zrotation
		JOINT Head
		{
			OFFSET 0.00000 15.03989 0.00000
			CHANNELS 3 Xrotation Yrotation Zrotation
			End Site
			{
				OFFSET 0.00000 4.52755 0.00000
			}
		}
		JOINT LeftShoulder
		{
			OFFSET 0.00000 10.53037 0.00000
			CHANNELS 3 Xrotation Yrotation Zrotation
			JOINT LeftArm
			{
				OFFSET 7.02886 0.00000 0.00000
				CHANNELS 3 Xrotation Yrotation Zrotation
				JOINT LeftForeArm
				{
					OFFSET 10.79770 0.00000 0.00000
					CHANNELS 3 Yrotation Zrotation Xrotation
					JOINT LeftHand
					{
						OFFSET 7.90744 0.00000 0.00000
						CHANNELS 3 Xrotation Yrotation Zrotation
						JOINT LeftHandThumb1
						{
							OFFSET 0.00000 0.00000 0.00000
							CHANNELS 3 Xrotation Zrotation Yrotation
							End Site
							{
								OFFSET 0.00000 0.00000 3.93700
							}
						}
						End Site
						{
							OFFSET 3.93700 0.00000 0.00000
						}
					}
				}
			}
		}
		JOINT RightShoulder
		{
			OFFSET 0.00000 10.53037 0.00000
			CHANNELS 3 Xrotation Yrotation Zrotation
			JOINT RightArm
			{
				OFFSET -7.02886 0.00000 0.00000
				CHANNELS 3 Xrotation Yrotation Zrotation
				JOINT RightForeArm
				{
					OFFSET -10.79770 0.00000 0.00000
					CHANNELS 3 Yrotation Zrotation Xrotation
					JOINT RightHand
					{
						OFFSET -7.90744 0.00000 0.00000
						CHANNELS 3 Xrotation Yrotation Zrotation
						JOINT RightHandThumb1
						{
							OFFSET 0.00000 0.00000 0.00000
							CHANNELS 3 Xrotation Zrotation Yrotation
							End Site
							{
								OFFSET 0.00000 0.00000 3.93700
							}
						}
						End Site
						{
							OFFSET -3.93700 0.00000 0.00000
						}
					}
				}
			}
		}
	}
	JOINT LeftUpLeg
	{
		OFFSET 4.01300 0.00000 0.00000
		CHANNELS 3 Xrotation Yrotation Zrotation
		JOINT LeftLeg
		{
			OFFSET 0.00000 -16.89976 0.00000
			CHANNELS 3 Xrotation Yrotation Zrotation
			JOINT LeftFoot
			{
				OFFSET 0.00000 -17.38918 0.00000
				CHANNELS 3 Xrotation Yrotation Zrotation
				JOINT LeftToeBase
				{
					OFFSET 0.00000 -1.27456 4.75673
					CHANNELS 3 Xrotation Yrotation Zrotation
					End Site
					{
						OFFSET 0.00000 0.00000 2.95275
					}
				}
			}
		}
	}
	JOINT RightUpLeg
	{
		OFFSET -4.01300 0.00000 0.00000
		CHANNELS 3 Xrotation Yrotation Zrotation
		JOINT RightLeg
		{
			OFFSET 0.00000 -16.89976 0.00000
			CHANNELS 3 Xrotation Yrotation Zrotation
			JOINT RightFoot
			{
				OFFSET 0.00000 -17.38918 0.00000
				CHANNELS 3 Xrotation Yrotation Zrotation
				JOINT RightToeBase
				{
					OFFSET 0.00000 -1.27456 4.75673
					CHANNELS 3 Xrotation Yrotation Zrotation
					End Site
					{
						OFFSET 0.00000 0.00000 2.95275
					}
				}
			}
		}
	}
}
MOTION
Frames: 11
Frame Time: 0.008333
 17.4661 35.2684 -23.3789 171.4289 -1.5783 178.6622 -18.7001 -2.0927 1.5856 9.4515 -1.6851 -0.3185 -37.1111 -0.1598 17.6123 5.4632 -4.5733 -6.9551 1.7897 0.0000 12.7739 1.3184 5.8583 -12.7066 33.1476 -0.0000 26.2537 1.2987 -12.1880 -11.5873 -34.1371 1.8573 8.7284 5.7147 -0.0000 36.5395 0.9889 -4.2055 13.2450 32.8623 0.0000 -24.3270 0.0360 8.4376 4.4489 -6.4385 0.0000 0.0000 -18.6729 28.3568 4.1067 26.8703 -0.0000 0.0000 -0.2742 -8.6868 -2.5218 -3.8330 -0.0000 -0.0000 -17.3060 -26.8129 2.0982 23.0705 -0.0000 0.0000
 17.4674 35.2693 -23.3763 171.4276 -1.5759 178.6626 -18.6960 -2.1052 1.5914 9.4389 -1.6772 -0.3248 -37.1228 -0.1725 17.6039 5.4902 -4.5456 -6.9500 1.7818 0.0000 12.7408 1.3354 5.9268 -12.7222 33.1476 -0.0000 26.2537 1.2424 -12.1689 -11.6042 -34.0889 1.8507 8.7414 5.7256 -0.0000 36.5486 1.0069 -4.2785 13.2557 32.8623 0.0000 -24.3270 0.0317 8.4380 4.4496 -6.4415 -0.0000 0.0000 -18.6539 28.3693 4.0796 26.8740 -0.0000 0.0000 -0.2808 -8.6794 -2.5221 -3.8300 -0.0000 -0.0000 -17.3926 -26.8246 2.0265 23.3888 0.0000 0.0000
 17.4690 35.2697 -23.3732 171.4188 -1.5754 178.6584 -18.6972 -2.1139 1.5944 9.4166 -1.6856 -0.3242 -37.1100 -0.1745 17.6096 5.4678 -4.5345 -6.9581 1.7880 0.0000 12.7368 1.3345 5.9166 -12.7342 33.1476 -0.0000 26.2537 1.2091 -12.1430 -11.6042 -34.0360 1.8330 8.7273 5.7272 -0.0000 36.5206 1.0085 -4.2902 13.2415 32.8623 0.0000 -24.3270 0.0150 8.4279 4.4581 -6.4363 0.0000 0.0000 -18.6610 28.3714 4.0943 26.8856 0.0000 0.0000 -0.2986 -8.6788 -2.5143 -3.8220 -0.0000 -0.0000 -17.3175 -26.8203 2.0858 23.1161 -0.0000 0.0000
 17.4698 35.2702 -23.3704 171.4157 -1.5758 178.6590 -18.6923 -2.1244 1.5937 9.3936 -1.6794 -0.3167 -37.1205 -0.1887 17.6132 5.4843 -4.5120 -6.9669 1.7927 0.0000 12.6998 1.3303 5.8987 -12.7325 33.1476 -0.0000 26.2537 1.2085 -12.1359 -11.5974 -34.0458 1.8273 8.7243 5.7266 -0.0000 36.5223 1.0071 -4.2756 13.2676 32.8623 0.0000 -24.3270 0.0095 8.4130 4.4598 -6.4393 -0.0000 0.0000 -18.6518 28.3861 4.0965 26.8850 0.0000 -0.0000 -0.3145 -8.6903 -2.5143 -3.8073 0.0000 0.0000 -17.3243 -26.8143 2.0843 23.1282 0.0000 -0.0000
 17.4711 35.2708 -23.3680 171.4149 -1.5771 178.6545 -18.6834 -2.1314 1.5957 9.3648 -1.7059 -0.2922 -37.1130 -0.1947 17.6153 5.4544 -4.4906 -6.9738 1.7907 0.0000 12.7430 1.3301 5.9041 -12.7199 33.1476 -0.0000 26.2537 1.1899 -12.1307 -11.5931 -34.0377 1.8220 8.7203 5.7269 -0.0000 36.5092 0.9879 -4.2069 13.2284 32.8623 0.0000 -24.3270 0.0056 8.3979 4.4672 -6.4394 0.0000 -0.0000 -18.6340 28.3943 4.0827 26.8408 0.0000 -0.0000 -0.3154 -8.6859 -2.5032 -3.8158 0.0000 0.0000 -17.3036 -26.8471 2.0699 23.0458 0.0000 -0.0000
 17.4720 35.2711 -23.3649 171.4131 -1.5773 178.6527 -18.6766 -2.1322 1.6011 9.3421 -1.6862 -0.2795 -37.1112 -0.2131 17.6040 5.4569 -4.4636 -6.9788 1.7974 0.0000 12.6866 1.3268 5.8899 -12.7191 33.1476 -0.0000 26.2537 1.1597 -12.1166 -11.6036 -34.0022 1.8042 8.7177 5.7182 -0.0000 36.5041 0.9821 -4.1866 13.2145 32.8623 0.0000 -24.3270 0.0014 8.3960 4.4705 -6.4480 0.0000 0.0000 -18.6385 28.3944 4.0805 26.8985 -0.0000 0.0000 -0.3265 -8.6920 -2.5070 -3.8030 0.0000 0.0000 -17.3863 -26.8157 2.0459 23.3766 0.0000 -0.0000
 17.4739 35.2718 -23.3619 171.4106 -1.5833 178.6548 -18.6728 -2.1465 1.5931 9.3340 -1.6661 -0.2744 -37.0977 -0.2131 17.6018 5.4190 -4.4534 -6.9770 1.8146 0.0000 12.6765 1.3313 5.9056 -12.7283 33.1476 -0.0000 26.2537 1.1788 -12.1105 -11.6000 -34.0434 1.7904 8.7293 5.6907 -0.0000 36.4987 0.9737 -4.1518 13.2110 32.8623 0.0000 -24.3270 -0.0053 8.3687 4.4732 -6.4457 0.0000 -0.0000 -18.6220 28.4080 4.0823 26.8701 -0.0000 0.0000 -0.3314 -8.6808 -2.5065 -3.8035 -0.0000 -0.0000 -17.3902 -26.8365 2.0291 23.4129 -0.0000 0.0000
 17.4758 35.2724 -23.3590 171.4090 -1.5880 178.6486 -18.6636 -2.1561 1.5956 9.3117 -1.6807 -0.2750 -37.1044 -0.2347 17.6023 5.4030 -4.4155 -6.9897 1.8117 0.0000 12.6905 1.3297 5.9091 -12.7056 33.1476 -0.0000 26.2537 1.1847 -12.1026 -11.5906 -34.0363 1.7864 8.7209 5.6739 -0.0000 36.4830 0.9747 -4.1542 13.2173 32.8623 0.0000 -24.3270 -0.0071 8.3441 4.4850 -6.4539 -0.0000 -0.0000 -18.6170 28.4101 4.0959 26.9219 -0.0000 0.0000 -0.3370 -8.6992 -2.4919 -3.8072 0.0000 -0.0000 -17.2887 -26.8308 2.0844 23.0538 0.0000 0.0000
 17.4767 35.2736 -23.3556 171.4088 -1.6004 178.6412 -18.6518 -2.1650 1.6080 9.2929 -1.6413 -0.2600 -37.1157 -0.2444 17.5722 5.4126 -4.3956 -6.9739 1.8195 0.0000 12.6606 1.3297 5.9005 -12.7237 33.1476 -0.0000 26.2537 1.1555 -12.1000 -11.6089 -34.0287 1.7659 8.7324 5.6755 -0.0000 36.5132 0.9803 -4.1763 13.2225 32.8623 0.0000 -24.3270 -0.0129 8.3042 4.4950 -6.4515 0.0000 0.0000 -18.5965 28.4335 4.0635 26.8443 -0.0000 0.0000 -0.3327 -8.7036 -2.4814 -3.8211 0.0000 0.0000 -17.2658 -26.8527 2.1074 23.0714 -0.0000 0.0000
 17.4781 35.2746 -23.3522 171.4016 -1.6079 178.6374 -18.6487 -2.1698 1.6083 9.2794 -1.6184 -0.2548 -37.1245 -0.2656 17.5677 5.3957 -4.3619 -6.9850 1.8253 0.0000 12.6441 1.3259 5.8886 -12.7128 33.1476 -0.0000 26.2537 1.1451 -12.0981 -11.6151 -34.0300 1.7488 8.7400 5.6633 -0.0000 36.5261 0.9760 -4.1588 13.2192 32.8623 0.0000 -24.3270 -0.0227 8.2767 4.5026 -6.4580 0.0000 -0.0000 -18.5779 28.4466 4.0535 26.8248 0.0000 -0.0000 -0.3429 -8.7046 -2.4826 -3.8153 -0.0000 -0.0000 -17.3461 -26.8380 2.0641 23.3917 -0.0000 0.0000
 17.4809 35.2753 -23.3479 171.3887 -1.6233 178.6360 -18.6557 -2.1921 1.5965 9.2682 -1.6011 -0.2430 -37.1096 -0.2834 17.5672 5.3545 -4.3204 -6.9866 1.8325 0.0000 12.6405 1.3240 5.8927 -12.6872 33.1476 -0.0000 26.2537 1.1365 -12.0632 -11.5993 -34.0103 1.7273 8.7172 5.6538 -0.0000 36.5458 0.9934 -4.2382 13.2046 32.8623 0.0000 -24.3270 -0.0496 8.2366 4.5135 -6.4429 0.0000 0.0000 -18.5749 28.4433 4.0622 26.8612 -0.0000 0.0000 -0.3607 -8.7111 -2.4778 -3.8140 0.0000 -0.0000 -17.3480 -26.8457 2.0770 23.4153 -0.0000 0.0000
